<svg width="1813" height="1024" viewBox="0 0 1813 1024" fill="none" xmlns="http://www.w3.org/2000/svg">
<g id="Desktop - 1">
<g id="Group 2">
<g id="Polygon 1" filter="url(#filter0_d_0:1)">
<path d="M964.491 80.2181C949.435 71.8291 949.435 50.1709 964.491 41.7819L1002.72 20.4806C1005.99 18.6563 1009.68 17.6987 1013.43 17.6987L1157.42 17.6987C1161.17 17.6987 1164.86 18.6563 1168.13 20.4806L1206.36 41.7819C1221.42 50.1709 1221.42 71.8291 1206.36 80.2181L1168.13 101.519C1164.86 103.344 1161.17 104.301 1157.42 104.301L1013.43 104.301C1009.68 104.301 1005.99 103.344 1002.72 101.519L964.491 80.2181Z" fill="url(#paint0_linear_0:1)"/>
</g>
<mask id="mask0_0:1" style="mask-type:alpha" maskUnits="userSpaceOnUse" x="953" y="17" width="265" height="88">
<path id="Polygon 2" d="M964.491 80.2181C949.435 71.8291 949.435 50.1709 964.491 41.7819L1002.72 20.4806C1005.99 18.6563 1009.68 17.6987 1013.43 17.6987L1157.42 17.6987C1161.17 17.6987 1164.86 18.6563 1168.13 20.4806L1206.36 41.7819C1221.42 50.1709 1221.42 71.8291 1206.36 80.2181L1168.13 101.519C1164.86 103.344 1161.17 104.301 1157.42 104.301L1013.43 104.301C1009.68 104.301 1005.99 103.344 1002.72 101.519L964.491 80.2181Z" fill="url(#paint1_linear_0:1)"/>
</mask>
<g mask="url(#mask0_0:1)">
<g id="About-me" filter="url(#filter1_i_0:1)">
<text fill="white" xml:space="preserve" style="white-space: pre" font-family="Roboto" font-size="40" letter-spacing="0em"><tspan x="1000" y="77.1719">About-me</tspan></text>
</g>
</g>
</g>
</g>
<defs>
<filter id="filter0_d_0:1" x="949.199" y="17.6987" width="272.455" height="96.6025" filterUnits="userSpaceOnUse" color-interpolation-filters="sRGB">
<feFlood flood-opacity="0" result="BackgroundImageFix"/>
<feColorMatrix in="SourceAlpha" type="matrix" values="0 0 0 0 0 0 0 0 0 0 0 0 0 0 0 0 0 0 127 0" result="hardAlpha"/>
<feOffset dy="6"/>
<feGaussianBlur stdDeviation="2"/>
<feComposite in2="hardAlpha" operator="out"/>
<feColorMatrix type="matrix" values="0 0 0 0 0 0 0 0 0 0 0 0 0 0 0 0 0 0 0.25 0"/>
<feBlend mode="normal" in2="BackgroundImageFix" result="effect1_dropShadow_0:1"/>
<feBlend mode="normal" in="SourceGraphic" in2="effect1_dropShadow_0:1" result="shape"/>
</filter>
<filter id="filter1_i_0:1" x="1000.55" y="47" width="171.855" height="34.3906" filterUnits="userSpaceOnUse" color-interpolation-filters="sRGB">
<feFlood flood-opacity="0" result="BackgroundImageFix"/>
<feBlend mode="normal" in="SourceGraphic" in2="BackgroundImageFix" result="shape"/>
<feColorMatrix in="SourceAlpha" type="matrix" values="0 0 0 0 0 0 0 0 0 0 0 0 0 0 0 0 0 0 127 0" result="hardAlpha"/>
<feOffset dy="6"/>
<feGaussianBlur stdDeviation="2"/>
<feComposite in2="hardAlpha" operator="arithmetic" k2="-1" k3="1"/>
<feColorMatrix type="matrix" values="0 0 0 0 0 0 0 0 0 0 0 0 0 0 0 0 0 0 0.25 0"/>
<feBlend mode="normal" in2="shape" result="effect1_innerShadow_0:1"/>
</filter>
<linearGradient id="paint0_linear_0:1" x1="930" y1="61" x2="1240.85" y2="61" gradientUnits="userSpaceOnUse">
<stop stop-color="#3300FF"/>
<stop offset="1" stop-color="#BC009E"/>
</linearGradient>
<linearGradient id="paint1_linear_0:1" x1="930" y1="61" x2="1240.85" y2="61" gradientUnits="userSpaceOnUse">
<stop stop-color="#4200FF"/>
<stop offset="1" stop-color="#BC009E"/>
</linearGradient>
</defs>
</svg>
