<svg width="311" height="104" viewBox="0 0 311 104" fill="none" xmlns="http://www.w3.org/2000/svg">
<g id="Desktop - 1" clip-path="url(#clip0_0:1)">
<g id="Group 2">
<g id="Polygon-1" filter="url(#filter0_d_0:1)">
<path d="M34.4909 69.2181C19.4351 60.8291 19.4351 39.1709 34.4909 30.7819L72.7205 9.48064C75.9946 7.65631 79.6805 6.69873 83.4286 6.69873L227.424 6.69873C231.172 6.69873 234.858 7.65632 238.132 9.48065L276.362 30.7819C291.418 39.1709 291.418 60.8291 276.362 69.2181L238.132 90.5194C234.858 92.3437 231.172 93.3013 227.424 93.3013L83.4286 93.3013C79.6805 93.3013 75.9946 92.3437 72.7204 90.5194L34.4909 69.2181Z" fill="url(#paint0_linear_0:1)"/>
</g>
<mask id="mask0_0:1" style="mask-type:alpha" maskUnits="userSpaceOnUse" x="23" y="6" width="265" height="88">
<path id="Polygon 2" d="M34.4909 69.2181C19.4351 60.8291 19.4351 39.1709 34.4909 30.7819L72.7205 9.48064C75.9946 7.65631 79.6805 6.69873 83.4286 6.69873L227.424 6.69873C231.172 6.69873 234.858 7.65632 238.132 9.48065L276.362 30.7819C291.418 39.1709 291.418 60.8291 276.362 69.2181L238.132 90.5194C234.858 92.3437 231.172 93.3013 227.424 93.3013L83.4286 93.3013C79.6805 93.3013 75.9946 92.3437 72.7204 90.5194L34.4909 69.2181Z" fill="url(#paint1_linear_0:1)"/>
</mask>
<g mask="url(#mask0_0:1)">
<g id="Home-white" filter="url(#filter1_i_0:1)">
<text fill="white" xml:space="preserve" style="white-space: pre" font-family="Arial" font-size="60" letter-spacing="0em"><tspan x="79" y="71.3008">Home</tspan></text>
</g>
</g>
<g mask="url(#mask0_0:1)">
<g id="About-me" filter="url(#filter1_i_0:1)">
<text fill="white" xml:space="preserve" style="white-space: pre" font-family="Roboto" font-size="40" letter-spacing="0em"><tspan x="1000" y="77.1719">About-me</tspan></text>
</g>
</g>
<g mask="url(#mask0_0:1)">
<g id="Projects-white" filter="url(#filter1_d_0:1)">
<text fill="white" xml:space="preserve" style="white-space: pre" font-family="Roboto" font-size="40" letter-spacing="0em"><tspan x="1250" y="77.1719">Projects</tspan></text>
</g>
</g>
<g mask="url(#mask0_0:1)">
<g id="Contact-me-white" filter="url(#filter1_i_0:1)">
<text fill="white" xml:space="preserve" style="white-space: pre" font-family="Roboto" font-size="40" letter-spacing="0em"><tspan x="1500" y="77.1719">Contact-me</tspan></text>
</g>
</g>
</g>
</g>
<defs>
<filter id="filter0_d_0:1" x="19.1991" y="6.69873" width="272.455" height="96.6025" filterUnits="userSpaceOnUse" color-interpolation-filters="sRGB">
<feFlood flood-opacity="0" result="BackgroundImageFix"/>
<feColorMatrix in="SourceAlpha" type="matrix" values="0 0 0 0 0 0 0 0 0 0 0 0 0 0 0 0 0 0 127 0" result="hardAlpha"/>
<feOffset dy="6"/>
<feGaussianBlur stdDeviation="2"/>
<feComposite in2="hardAlpha" operator="out"/>
<feColorMatrix type="matrix" values="0 0 0 0 0 0 0 0 0 0 0 0 0 0 0 0 0 0 0.25 0"/>
<feBlend mode="normal" in2="BackgroundImageFix" result="effect1_dropShadow_0:1"/>
<feBlend mode="normal" in="SourceGraphic" in2="effect1_dropShadow_0:1" result="shape"/>
</filter>
<filter id="filter1_i_0:1" x="83.8047" y="28.0508" width="152.812" height="47.6523" filterUnits="userSpaceOnUse" color-interpolation-filters="sRGB">
<feFlood flood-opacity="0" result="BackgroundImageFix"/>
<feBlend mode="normal" in="SourceGraphic" in2="BackgroundImageFix" result="shape"/>
<feColorMatrix in="SourceAlpha" type="matrix" values="0 0 0 0 0 0 0 0 0 0 0 0 0 0 0 0 0 0 127 0" result="hardAlpha"/>
<feOffset dy="6"/>
<feGaussianBlur stdDeviation="2"/>
<feComposite in2="hardAlpha" operator="arithmetic" k2="-1" k3="1"/>
<feColorMatrix type="matrix" values="0 0 0 0 0 0 0 0 0 0 0 0 0 0 0 0 0 0 0.25 0"/>
<feBlend mode="normal" in2="shape" result="effect1_innerShadow_0:1"/>
</filter>
<linearGradient id="paint0_linear_0:1" x1="0" y1="50" x2="310.853" y2="50" gradientUnits="userSpaceOnUse">
<stop stop-color="#3300FF"/>
<stop offset="1" stop-color="#BC009E"/>
</linearGradient>
<linearGradient id="paint1_linear_0:1" x1="0" y1="50" x2="310.853" y2="50" gradientUnits="userSpaceOnUse">
<stop stop-color="#4200FF"/>
<stop offset="1" stop-color="#BC009E"/>
</linearGradient>
<clipPath id="clip0_0:1">
<rect width="1813" height="1024" fill="white" transform="translate(0 -11)"/>
</clipPath>
</defs>
</svg>
