<svg width="1813" height="1024" viewBox="0 0 1813 1024" fill="none" xmlns="http://www.w3.org/2000/svg">
<g id="Desktop - 1">
<g id="Group 2">
<g id="Polygon 1" filter="url(#filter0_d_0:1)">
<path d="M1204.49 80.2181C1189.44 71.8291 1189.44 50.1709 1204.49 41.7819L1242.72 20.4806C1245.99 18.6563 1249.68 17.6987 1253.43 17.6987L1397.42 17.6987C1401.17 17.6987 1404.86 18.6563 1408.13 20.4806L1446.36 41.7819C1461.42 50.1709 1461.42 71.8291 1446.36 80.2181L1408.13 101.519C1404.86 103.344 1401.17 104.301 1397.42 104.301L1253.43 104.301C1249.68 104.301 1245.99 103.344 1242.72 101.519L1204.49 80.2181Z" fill="url(#paint0_linear_0:1)"/>
</g>
<mask id="mask0_0:1" style="mask-type:alpha" maskUnits="userSpaceOnUse" x="1193" y="17" width="265" height="88">
<path id="Polygon 2" d="M1204.49 80.2181C1189.44 71.8291 1189.44 50.1709 1204.49 41.7819L1242.72 20.4806C1245.99 18.6563 1249.68 17.6987 1253.43 17.6987L1397.42 17.6987C1401.17 17.6987 1404.86 18.6563 1408.13 20.4806L1446.36 41.7819C1461.42 50.1709 1461.42 71.8291 1446.36 80.2181L1408.13 101.519C1404.86 103.344 1401.17 104.301 1397.42 104.301L1253.43 104.301C1249.68 104.301 1245.99 103.344 1242.72 101.519L1204.49 80.2181Z" fill="url(#paint1_linear_0:1)"/>
</mask>
<g mask="url(#mask0_0:1)">
<g id="Projects-white" filter="url(#filter1_d_0:1)">
<text fill="white" xml:space="preserve" style="white-space: pre" font-family="Roboto" font-size="40" letter-spacing="0em"><tspan x="1250" y="77.1719">Projects</tspan></text>
</g>
</g>
</g>
</g>
<defs>
<filter id="filter0_d_0:1" x="1189.2" y="17.6987" width="272.455" height="96.6025" filterUnits="userSpaceOnUse" color-interpolation-filters="sRGB">
<feFlood flood-opacity="0" result="BackgroundImageFix"/>
<feColorMatrix in="SourceAlpha" type="matrix" values="0 0 0 0 0 0 0 0 0 0 0 0 0 0 0 0 0 0 127 0" result="hardAlpha"/>
<feOffset dy="6"/>
<feGaussianBlur stdDeviation="2"/>
<feComposite in2="hardAlpha" operator="out"/>
<feColorMatrix type="matrix" values="0 0 0 0 0 0 0 0 0 0 0 0 0 0 0 0 0 0 0.25 0"/>
<feBlend mode="normal" in2="BackgroundImageFix" result="effect1_dropShadow_0:1"/>
<feBlend mode="normal" in="SourceGraphic" in2="effect1_dropShadow_0:1" result="shape"/>
</filter>
<filter id="filter1_d_0:1" x="1249.3" y="48.1719" width="149.367" height="47.3633" filterUnits="userSpaceOnUse" color-interpolation-filters="sRGB">
<feFlood flood-opacity="0" result="BackgroundImageFix"/>
<feColorMatrix in="SourceAlpha" type="matrix" values="0 0 0 0 0 0 0 0 0 0 0 0 0 0 0 0 0 0 127 0" result="hardAlpha"/>
<feOffset dy="6"/>
<feGaussianBlur stdDeviation="2"/>
<feComposite in2="hardAlpha" operator="out"/>
<feColorMatrix type="matrix" values="0 0 0 0 0 0 0 0 0 0 0 0 0 0 0 0 0 0 0.25 0"/>
<feBlend mode="normal" in2="BackgroundImageFix" result="effect1_dropShadow_0:1"/>
<feBlend mode="normal" in="SourceGraphic" in2="effect1_dropShadow_0:1" result="shape"/>
</filter>
<linearGradient id="paint0_linear_0:1" x1="1170" y1="61" x2="1480.85" y2="61" gradientUnits="userSpaceOnUse">
<stop stop-color="#3300FF"/>
<stop offset="1" stop-color="#BC009E"/>
</linearGradient>
<linearGradient id="paint1_linear_0:1" x1="1170" y1="61" x2="1480.85" y2="61" gradientUnits="userSpaceOnUse">
<stop stop-color="#4200FF"/>
<stop offset="1" stop-color="#BC009E"/>
</linearGradient>
</defs>
</svg>
